<svg width="75" height="75" viewBox="0 0 75 75" fill="none" xmlns="http://www.w3.org/2000/svg">
<circle cx="37.5" cy="37.5" r="37.5" fill="#2B365A"/>
<path d="M37 29.6667V26.3333C37 24.5 35.38 23 33.4 23H22.6C20.62 23 19 24.5 19 26.3333V49.6667C19 51.5 20.62 53 22.6 53H51.4C53.38 53 55 51.5 55 49.6667V33C55 31.1667 53.38 29.6667 51.4 29.6667H37ZM26.2 49.6667H22.6V46.3333H26.2V49.6667ZM26.2 43H22.6V39.6667H26.2V43ZM26.2 36.3333H22.6V33H26.2V36.3333ZM26.2 29.6667H22.6V26.3333H26.2V29.6667ZM33.4 49.6667H29.8V46.3333H33.4V49.6667ZM33.4 43H29.8V39.6667H33.4V43ZM33.4 36.3333H29.8V33H33.4V36.3333ZM33.4 29.6667H29.8V26.3333H33.4V29.6667ZM49.6 49.6667H37V46.3333H40.6V43H37V39.6667H40.6V36.3333H37V33H49.6C50.59 33 51.4 33.75 51.4 34.6667V48C51.4 48.9167 50.59 49.6667 49.6 49.6667ZM47.8 36.3333H44.2V39.6667H47.8V36.3333ZM47.8 43H44.2V46.3333H47.8V43Z" fill="#F5F5F5"/>
</svg>
