<svg width="104" height="104" viewBox="0 0 104 104" fill="none" xmlns="http://www.w3.org/2000/svg">
<path d="M71.5 39C71.5 44.1717 69.4455 49.1316 65.7886 52.7886C62.1316 56.4455 57.1717 58.5 52 58.5C46.8283 58.5 41.8684 56.4455 38.2114 52.7886C34.5545 49.1316 32.5 44.1717 32.5 39C32.5 33.8283 34.5545 28.8684 38.2114 25.2114C41.8684 21.5545 46.8283 19.5 52 19.5C57.1717 19.5 62.1316 21.5545 65.7886 25.2114C69.4455 28.8684 71.5 33.8283 71.5 39Z" fill="#2B365A"/>
<path fill-rule="evenodd" clip-rule="evenodd" d="M0 52C0 38.2087 5.47856 24.9823 15.2304 15.2304C24.9823 5.47856 38.2087 0 52 0C65.7913 0 79.0177 5.47856 88.7696 15.2304C98.5214 24.9823 104 38.2087 104 52C104 65.7913 98.5214 79.0177 88.7696 88.7696C79.0177 98.5214 65.7913 104 52 104C38.2087 104 24.9823 98.5214 15.2304 88.7696C5.47856 79.0177 0 65.7913 0 52ZM52 6.5C43.4316 6.50046 35.0374 8.92036 27.7836 13.4812C20.5299 18.042 14.7113 24.5584 10.9978 32.2803C7.2842 40.0021 5.82651 48.6157 6.79249 57.1295C7.75847 65.6433 11.1088 73.7114 16.458 80.405C21.073 72.969 31.2325 65 52 65C72.7675 65 82.9205 72.9625 87.542 80.405C92.8912 73.7114 96.2415 65.6433 97.2075 57.1295C98.1735 48.6157 96.7158 40.0021 93.0022 32.2803C89.2887 24.5584 83.4701 18.042 76.2164 13.4812C68.9626 8.92036 60.5684 6.50046 52 6.5Z" fill="#2B365A"/>
</svg>
