<svg width="329" height="423" viewBox="0 0 329 423" fill="none" xmlns="http://www.w3.org/2000/svg">
<g filter="url(#filter0_d_417_1328)">
<path d="M9.80005 48.8C9.80005 23.9472 29.9472 3.80005 54.8001 3.80005H273.8C298.653 3.80005 318.8 23.9472 318.8 48.8V361.8C318.8 386.653 298.653 406.8 273.8 406.8H54.8001C29.9472 406.8 9.80005 386.653 9.80005 361.8V48.8Z" fill="url(#paint0_linear_417_1328)" shape-rendering="crispEdges"/>
<path d="M273.8 3.55005C298.791 3.55005 319.05 23.8092 319.05 48.8V361.8C319.05 386.791 298.791 407.05 273.8 407.05H54.8C29.8092 407.05 9.55005 386.791 9.55005 361.8V48.8C9.55005 23.8092 29.8092 3.55005 54.8 3.55005H273.8Z" stroke="white" stroke-width="0.5" shape-rendering="crispEdges"/>
</g>
<defs>
<filter id="filter0_d_417_1328" x="4.86374e-05" y="4.86374e-05" width="328.6" height="422.6" filterUnits="userSpaceOnUse" color-interpolation-filters="sRGB">
<feFlood flood-opacity="0" result="BackgroundImageFix"/>
<feColorMatrix in="SourceAlpha" type="matrix" values="0 0 0 0 0 0 0 0 0 0 0 0 0 0 0 0 0 0 127 0" result="hardAlpha"/>
<feOffset dy="6"/>
<feGaussianBlur stdDeviation="4.65"/>
<feComposite in2="hardAlpha" operator="out"/>
<feColorMatrix type="matrix" values="0 0 0 0 0 0 0 0 0 0 0 0 0 0 0 0 0 0 0.24 0"/>
<feBlend mode="normal" in2="BackgroundImageFix" result="effect1_dropShadow_417_1328"/>
<feBlend mode="normal" in="SourceGraphic" in2="effect1_dropShadow_417_1328" result="shape"/>
</filter>
<linearGradient id="paint0_linear_417_1328" x1="-81.7555" y1="78.8267" x2="675.772" y2="328.73" gradientUnits="userSpaceOnUse">
<stop offset="0.013038" stop-opacity="0.78"/>
<stop offset="0.312601" stop-color="#2B365A"/>
<stop offset="1" stop-color="#FF3D00"/>
</linearGradient>
</defs>
</svg>
