<svg width="344" height="96" viewBox="0 0 344 96" fill="none" xmlns="http://www.w3.org/2000/svg">
<g filter="url(#filter0_d_426_1987)">
<path d="M10.5 42.276V16.896H28.32V21.972H17.16V27.12H27.492V32.196H17.16V42.276H10.5ZM33.6482 42.276V16.896H40.3082V42.276H33.6482ZM47.1637 42.276V16.896H52.0597L64.9117 32.844H63.8677V16.896H70.0237V42.276H65.1277L52.3477 26.328H53.3917V42.276H47.1637ZM76.8511 42.276V16.896H87.0751C90.0751 16.896 92.6071 17.412 94.6711 18.444C96.7351 19.452 98.2951 20.904 99.3511 22.8C100.431 24.672 100.971 26.928 100.971 29.568C100.971 32.184 100.431 34.44 99.3511 36.336C98.2951 38.232 96.7351 39.696 94.6711 40.728C92.6071 41.76 90.0751 42.276 87.0751 42.276H76.8511ZM83.5111 36.876H86.6431C89.2591 36.876 91.1911 36.276 92.4391 35.076C93.7111 33.876 94.3471 32.04 94.3471 29.568C94.3471 27.072 93.7111 25.236 92.4391 24.06C91.1911 22.86 89.2591 22.26 86.6431 22.26H83.5111V36.876ZM177.53 42.276V16.896H184.19V36.768H195.062V42.276H177.53ZM197.054 42.276L208.934 16.896H214.334L226.286 42.276H219.626L216.566 35.292L219.122 37.128H204.218L206.738 35.292L203.714 42.276H197.054ZM211.598 23.736L207.386 33.78L206.378 32.088H216.926L216.026 33.78L211.778 23.736H211.598ZM241.106 42.672C237.314 42.672 234.47 41.736 232.574 39.864C230.678 37.992 229.73 35.196 229.73 31.476V16.896H236.354V31.512C236.354 33.36 236.738 34.764 237.506 35.724C238.274 36.66 239.474 37.128 241.106 37.128C242.738 37.128 243.938 36.66 244.706 35.724C245.474 34.764 245.858 33.36 245.858 31.512V16.896H252.41V31.476C252.41 35.196 251.474 37.992 249.602 39.864C247.73 41.736 244.898 42.672 241.106 42.672ZM259.034 42.276V16.896H263.93L276.782 32.844H275.738V16.896H281.894V42.276H276.998L264.218 26.328H265.262V42.276H259.034ZM301.465 42.672C298.705 42.672 296.317 42.132 294.301 41.052C292.309 39.972 290.761 38.448 289.657 36.48C288.577 34.512 288.037 32.208 288.037 29.568C288.037 26.928 288.577 24.636 289.657 22.692C290.761 20.724 292.309 19.2 294.301 18.12C296.317 17.04 298.705 16.5 301.465 16.5C303.217 16.5 304.813 16.74 306.253 17.22C307.693 17.676 308.905 18.336 309.889 19.2L307.909 24.42C306.805 23.628 305.785 23.076 304.849 22.764C303.937 22.428 302.893 22.26 301.717 22.26C299.557 22.26 297.889 22.896 296.713 24.168C295.561 25.416 294.985 27.216 294.985 29.568C294.985 31.944 295.561 33.768 296.713 35.04C297.889 36.288 299.557 36.912 301.717 36.912C302.893 36.912 303.937 36.756 304.849 36.444C305.785 36.108 306.805 35.544 307.909 34.752L309.889 39.972C308.905 40.836 307.693 41.508 306.253 41.988C304.813 42.444 303.217 42.672 301.465 42.672ZM315.525 42.276V16.896H322.185V26.688H332.409V16.896H339.069V42.276H332.409V32.124H322.185V42.276H315.525ZM83.9878 95.276V69.896H101.808V74.972H90.6478V80.12H100.98V85.196H90.6478V95.276H83.9878ZM107.136 95.276V69.896H125.352V74.972H113.508V79.832H124.488V84.944H113.508V90.164H125.352V95.276H107.136ZM140.176 95.672C138.136 95.672 136.192 95.432 134.344 94.952C132.52 94.448 130.984 93.776 129.736 92.936L131.608 87.788C132.4 88.292 133.264 88.724 134.2 89.084C135.136 89.444 136.108 89.732 137.116 89.948C138.148 90.14 139.192 90.236 140.248 90.236C141.832 90.236 142.924 90.032 143.524 89.624C144.148 89.216 144.46 88.688 144.46 88.04C144.46 87.464 144.256 87.02 143.848 86.708C143.44 86.372 142.672 86.084 141.544 85.844L137.152 84.944C134.824 84.464 133.084 83.636 131.932 82.46C130.78 81.26 130.204 79.7 130.204 77.78C130.204 76.1 130.648 74.648 131.536 73.424C132.448 72.176 133.72 71.216 135.352 70.544C136.984 69.848 138.892 69.5 141.076 69.5C142.876 69.5 144.568 69.752 146.152 70.256C147.736 70.736 149.032 71.408 150.04 72.272L148.168 77.096C147.208 76.4 146.128 75.872 144.928 75.512C143.728 75.128 142.396 74.936 140.932 74.936C139.54 74.936 138.484 75.152 137.764 75.584C137.068 75.992 136.72 76.58 136.72 77.348C136.72 77.876 136.924 78.332 137.332 78.716C137.764 79.076 138.544 79.376 139.672 79.616L143.992 80.48C146.32 80.936 148.06 81.752 149.212 82.928C150.388 84.104 150.976 85.64 150.976 87.536C150.976 89.168 150.52 90.596 149.608 91.82C148.72 93.044 147.472 93.992 145.864 94.664C144.256 95.336 142.36 95.672 140.176 95.672ZM162.217 95.276V75.26H154.513V69.896H176.581V75.26H168.877V95.276H162.217ZM181.538 95.276V69.896H188.198V95.276H181.538ZM203.513 95.276L191.993 69.896H199.121L207.329 89.192H205.349L213.521 69.896H220.397L208.877 95.276H203.513ZM218.656 95.276L230.536 69.896H235.936L247.888 95.276H241.228L238.168 88.292L240.724 90.128H225.82L228.34 88.292L225.316 95.276H218.656ZM233.2 76.736L228.988 86.78L227.98 85.088H238.528L237.628 86.78L233.38 76.736H233.2ZM251.616 95.276V69.896H258.276V89.768H269.148V95.276H251.616Z" fill="url(#paint0_linear_426_1987)" shape-rendering="crispEdges"/>
<path d="M107.244 42.276V16.896H113.004L121.32 35.508H120.132L128.412 16.896H134.208V42.276H128.196V26.724H129.744L122.544 42.276H118.8L111.564 26.724H113.22V42.276H107.244ZM141.112 42.276V16.896H159.328V21.972H147.484V26.832H158.464V31.944H147.484V37.164H159.328V42.276H141.112Z" fill="url(#paint1_linear_426_1987)" shape-rendering="crispEdges"/>
</g>
<defs>
<filter id="filter0_d_426_1987" x="0" y="0" width="343.569" height="95.672" filterUnits="userSpaceOnUse" color-interpolation-filters="sRGB">
<feFlood flood-opacity="0" result="BackgroundImageFix"/>
<feColorMatrix in="SourceAlpha" type="matrix" values="0 0 0 0 0 0 0 0 0 0 0 0 0 0 0 0 0 0 127 0" result="hardAlpha"/>
<feOffset dx="-3" dy="-9"/>
<feGaussianBlur stdDeviation="3.75"/>
<feComposite in2="hardAlpha" operator="out"/>
<feColorMatrix type="matrix" values="0 0 0 0 0 0 0 0 0 0 0 0 0 0 0 0 0 0 0.6 0"/>
<feBlend mode="normal" in2="BackgroundImageFix" result="effect1_dropShadow_426_1987"/>
<feBlend mode="normal" in="SourceGraphic" in2="effect1_dropShadow_426_1987" result="shape"/>
</filter>
<linearGradient id="paint0_linear_426_1987" x1="24.6179" y1="117.52" x2="281.504" y2="186.363" gradientUnits="userSpaceOnUse">
<stop offset="0.106484" stop-color="#2B365A"/>
<stop offset="0.447095" stop-color="#42A5F5"/>
<stop offset="0.635" stop-color="#823E8D"/>
<stop offset="0.79623" stop-color="#EC9D03" stop-opacity="0.97"/>
<stop offset="0.90123" stop-color="#06CA02" stop-opacity="0.44"/>
<stop offset="0.97623" stop-color="#FF3D00"/>
</linearGradient>
<linearGradient id="paint1_linear_426_1987" x1="24.6179" y1="117.52" x2="281.504" y2="186.363" gradientUnits="userSpaceOnUse">
<stop offset="0.446995" stop-color="#E23338"/>
<stop offset="0.447095" stop-color="#42A5F5"/>
<stop offset="0.684886" stop-color="#823E8D"/>
<stop offset="0.94018" stop-color="#FF3D00"/>
</linearGradient>
</defs>
</svg>
