<svg width="24" height="18" viewBox="0 0 24 18" fill="none" xmlns="http://www.w3.org/2000/svg">
<path d="M5.45364 18V8.72964L2.57835 6.09942L0 4.63983V16.3641C0 17.2693 0.73347 18 1.63613 18H5.45364Z" fill="#4285F4"/>
<path d="M18.5464 17.9999H22.3639C23.2693 17.9999 24 17.2664 24 16.364V4.63983L21.0796 6.31162L18.5464 8.72955V17.9999Z" fill="#34A853"/>
<path d="M5.45277 8.72953L5.06152 5.10732L5.45277 1.6405L11.9971 6.54835L18.5414 1.6405L18.9791 4.92015L18.5414 8.72953L11.9971 13.6374L5.45277 8.72953Z" fill="#EA4335"/>
<path d="M18.5464 1.64054V8.72957L24 4.63976V2.45849C24 0.43542 21.6904 -0.717873 20.0735 0.495404L18.5464 1.64054Z" fill="#FBBC04"/>
<path d="M0 4.63981L2.50823 6.52088L5.45364 8.72962V1.64059L3.92652 0.495447C2.3068 -0.717924 0 0.435463 0 2.45844V4.63971V4.63981Z" fill="#C5221F"/>
</svg>
