<svg width="45" height="33" viewBox="0 0 45 33" fill="none" xmlns="http://www.w3.org/2000/svg">
<path d="M0 9C0 4.02944 4.02944 0 9 0H36C40.9706 0 45 4.02944 45 9V24C45 28.9706 40.9706 33 36 33H9C4.02944 33 0 28.9706 0 24V9Z" fill="url(#paint0_linear_833_331)"/>
<path fill-rule="evenodd" clip-rule="evenodd" d="M29.0844 15.6886C30.5216 16.4354 30.5215 18.4914 29.0844 19.2381L12.9221 27.6356C11.5907 28.3274 10 27.3612 10 25.8609V25.5704C10 24.7693 10.478 24.0455 11.2148 23.731L22.1909 19.0459C23.8107 18.3545 23.8107 16.0585 22.191 15.3671L11.156 10.6561C10.4549 10.3568 10 9.66807 10 8.90576C10 7.47798 11.5138 6.55861 12.7807 7.21694L29.0844 15.6886Z" fill="#F5F5F5"/>
<path d="M29.5 3L30.7154 6.28459L34 7.5L30.7154 8.71541L29.5 12L28.2846 8.71541L25 7.5L28.2846 6.28459L29.5 3Z" fill="#D9D9D9"/>
<path d="M34 10L34.8103 12.1897L37 13L34.8103 13.8103L34 16L33.1897 13.8103L31 13L33.1897 12.1897L34 10Z" fill="#D9D9D9"/>
<defs>
<linearGradient id="paint0_linear_833_331" x1="22.5" y1="0" x2="22.5" y2="33" gradientUnits="userSpaceOnUse">
<stop stop-color="#2B365A"/>
<stop offset="1" stop-color="#42A5F5"/>
</linearGradient>
</defs>
</svg>
