<svg width="329" height="423" viewBox="0 0 329 423" fill="none" xmlns="http://www.w3.org/2000/svg">
<g filter="url(#filter0_d_444_2644)">
<path d="M9.7998 48.8C9.7998 23.9472 29.947 3.80005 54.7998 3.80005H273.8C298.653 3.80005 318.8 23.9472 318.8 48.8V361.8C318.8 386.653 298.653 406.8 273.8 406.8H54.7998C29.947 406.8 9.7998 386.653 9.7998 361.8V48.8Z" fill="url(#paint0_linear_444_2644)" shape-rendering="crispEdges"/>
<path d="M273.8 3.55005C298.791 3.55005 319.05 23.8092 319.05 48.8V361.8C319.05 386.791 298.791 407.05 273.8 407.05H54.7998C29.8089 407.05 9.5498 386.791 9.5498 361.8V48.8C9.5498 23.8092 29.8089 3.55005 54.7998 3.55005H273.8Z" stroke="white" stroke-width="0.5" shape-rendering="crispEdges"/>
</g>
<defs>
<filter id="filter0_d_444_2644" x="-0.000195503" y="4.86374e-05" width="328.6" height="422.6" filterUnits="userSpaceOnUse" color-interpolation-filters="sRGB">
<feFlood flood-opacity="0" result="BackgroundImageFix"/>
<feColorMatrix in="SourceAlpha" type="matrix" values="0 0 0 0 0 0 0 0 0 0 0 0 0 0 0 0 0 0 127 0" result="hardAlpha"/>
<feOffset dy="6"/>
<feGaussianBlur stdDeviation="4.65"/>
<feComposite in2="hardAlpha" operator="out"/>
<feColorMatrix type="matrix" values="0 0 0 0 0 0 0 0 0 0 0 0 0 0 0 0 0 0 0.24 0"/>
<feBlend mode="normal" in2="BackgroundImageFix" result="effect1_dropShadow_444_2644"/>
<feBlend mode="normal" in="SourceGraphic" in2="effect1_dropShadow_444_2644" result="shape"/>
</filter>
<linearGradient id="paint0_linear_444_2644" x1="-81.7558" y1="78.8267" x2="675.772" y2="328.73" gradientUnits="userSpaceOnUse">
<stop offset="0.013038" stop-opacity="0.78"/>
<stop offset="0.312601" stop-color="#2B365A"/>
<stop offset="1" stop-color="#FF3D00"/>
</linearGradient>
</defs>
</svg>
