<svg width="36" height="30" viewBox="0 0 36 30" fill="none" xmlns="http://www.w3.org/2000/svg">
<path d="M18 6.66667V3.33333C18 1.5 16.38 0 14.4 0H3.6C1.62 0 0 1.5 0 3.33333V26.6667C0 28.5 1.62 30 3.6 30H32.4C34.38 30 36 28.5 36 26.6667V10C36 8.16667 34.38 6.66667 32.4 6.66667H18ZM7.2 26.6667H3.6V23.3333H7.2V26.6667ZM7.2 20H3.6V16.6667H7.2V20ZM7.2 13.3333H3.6V10H7.2V13.3333ZM7.2 6.66667H3.6V3.33333H7.2V6.66667ZM14.4 26.6667H10.8V23.3333H14.4V26.6667ZM14.4 20H10.8V16.6667H14.4V20ZM14.4 13.3333H10.8V10H14.4V13.3333ZM14.4 6.66667H10.8V3.33333H14.4V6.66667ZM30.6 26.6667H18V23.3333H21.6V20H18V16.6667H21.6V13.3333H18V10H30.6C31.59 10 32.4 10.75 32.4 11.6667V25C32.4 25.9167 31.59 26.6667 30.6 26.6667ZM28.8 13.3333H25.2V16.6667H28.8V13.3333ZM28.8 20H25.2V23.3333H28.8V20Z" fill="#F5F5F5"/>
</svg>
