<svg width="24" height="24" viewBox="0 0 24 24" fill="none" xmlns="http://www.w3.org/2000/svg">
<path d="M0.512334 11.8957C0.511771 13.9189 1.04277 15.8943 2.05246 17.6355L0.415771 23.5847L6.53127 21.9883C8.22274 22.9051 10.1179 23.3854 12.0438 23.3855H12.0488C18.4065 23.3855 23.5818 18.2352 23.5845 11.9048C23.5857 8.83723 22.3868 5.95272 20.2086 3.78257C18.0308 1.6126 15.1344 0.416927 12.0484 0.415527C5.68996 0.415527 0.515053 5.56558 0.512428 11.8957" fill="url(#paint0_linear_827_187)"/>
<path d="M0.100313 11.892C0.0996563 13.9879 0.649687 16.034 1.69537 17.8376L0 24L6.33478 22.3464C8.08022 23.2938 10.0454 23.7934 12.0451 23.7941H12.0502C18.636 23.7941 23.9972 18.4585 24 11.9015C24.0011 8.72373 22.7591 5.73552 20.5031 3.48762C18.2468 1.24001 15.2468 0.00130665 12.0502 0C5.46337 0 0.102938 5.33485 0.100313 11.892ZM3.87281 17.527L3.63628 17.1532C2.64197 15.5792 2.11716 13.7604 2.11791 11.8927C2.12006 6.4426 6.57544 2.0085 12.054 2.0085C14.7071 2.00962 17.2005 3.03926 19.0759 4.90739C20.9512 6.7757 21.9831 9.25926 21.9824 11.9007C21.98 17.3509 17.5245 21.7855 12.0502 21.7855H12.0463C10.2638 21.7846 8.51569 21.308 6.99113 20.4075L6.62831 20.1933L2.86912 21.1745L3.87281 17.5269V17.527Z" fill="url(#paint1_linear_827_187)"/>
<path d="M9.0609 6.92042C8.83721 6.42549 8.6018 6.4155 8.38909 6.40682C8.2149 6.39935 8.01577 6.39991 7.81684 6.39991C7.61771 6.39991 7.29418 6.47448 7.02071 6.77175C6.74696 7.06929 5.97559 7.78832 5.97559 9.25073C5.97559 10.7132 7.04555 12.1266 7.19471 12.3251C7.34405 12.5232 9.2603 15.6203 12.2952 16.8118C14.8174 17.802 15.3307 17.605 15.8781 17.5554C16.4256 17.5059 17.6447 16.8366 17.8935 16.1424C18.1424 15.4484 18.1424 14.8535 18.0677 14.7292C17.9931 14.6054 17.794 14.531 17.4954 14.3824C17.1967 14.2337 15.7288 13.5146 15.4551 13.4154C15.1814 13.3163 14.9823 13.2668 14.7832 13.5644C14.5841 13.8616 14.0123 14.531 13.838 14.7292C13.6639 14.9279 13.4896 14.9527 13.1911 14.804C12.8924 14.6548 11.9308 14.3413 10.7899 13.3288C9.9023 12.5409 9.30305 11.5679 9.12887 11.2702C8.95468 10.9731 9.11021 10.812 9.25993 10.6639C9.39409 10.5307 9.55862 10.3168 9.70805 10.1433C9.85693 9.96967 9.90662 9.84582 10.0062 9.64758C10.1058 9.44916 10.056 9.27556 9.98143 9.12688C9.90662 8.9782 9.3264 7.50813 9.0609 6.92042Z" fill="white"/>
<defs>
<linearGradient id="paint0_linear_827_187" x1="1158.85" y1="2317.33" x2="1158.85" y2="0.415527" gradientUnits="userSpaceOnUse">
<stop stop-color="#1FAF38"/>
<stop offset="1" stop-color="#60D669"/>
</linearGradient>
<linearGradient id="paint1_linear_827_187" x1="1200" y1="2400" x2="1200" y2="0" gradientUnits="userSpaceOnUse">
<stop stop-color="#F9F9F9"/>
<stop offset="1" stop-color="white"/>
</linearGradient>
</defs>
</svg>
