<svg width="19" height="17" viewBox="0 0 19 17" fill="none" xmlns="http://www.w3.org/2000/svg">
<path fill-rule="evenodd" clip-rule="evenodd" d="M18.25 8.5C18.25 8.08579 17.9142 7.75 17.5 7.75L1.50041 7.75C1.08619 7.75 0.750406 8.08579 0.750406 8.5C0.750406 8.91421 1.08619 9.25 1.50041 9.25H17.5C17.9142 9.25 18.25 8.91421 18.25 8.5ZM14.9669 15.5C14.9669 15.0858 14.6311 14.75 14.2169 14.75L1.5 14.75C1.08579 14.75 0.75 15.0858 0.75 15.5C0.75 15.9142 1.08579 16.25 1.5 16.25L14.2169 16.25C14.6311 16.25 14.9669 15.9142 14.9669 15.5ZM9.27814 1.5C9.27814 1.08579 8.94235 0.75 8.52814 0.75L1.5 0.75C1.08579 0.75 0.75 1.08579 0.75 1.5C0.75 1.91421 1.08579 2.25 1.5 2.25L8.52814 2.25C8.94235 2.25 9.27814 1.91421 9.27814 1.5Z" fill="#C4C4C4" stroke="#2B365A" stroke-width="1.5" stroke-linecap="round"/>
</svg>
