<svg width="21" height="24" viewBox="0 0 21 24" fill="none" xmlns="http://www.w3.org/2000/svg">
<path d="M6.9373 11.8598C6.14047 10.7066 5.66646 9.31514 5.56865 9.19693C6.7357 8.38332 9.01818 7.36091 9.14599 5.89389C9.30859 3.99846 6.09727 0.0360005 5.48165 0C3.79679 0.0180003 0.713271 2.86924 0.347857 3.73085C-0.331369 5.51228 0.00524403 7.17011 1.17289 9.57014C2.65974 13.1402 8.18235 19.9125 11.3415 22.0383C13.4319 23.6427 14.959 24.2728 16.7825 23.8923C17.6303 23.7315 20.6922 21.2193 20.9988 19.5207C21.0738 18.8907 17.5145 14.714 15.6736 14.5484C14.2444 14.4164 12.8739 16.556 11.8917 17.6019C11.7939 17.4771 10.9563 16.8236 10.0574 15.7892C8.88738 14.5598 7.80014 13.1156 6.9373 11.8598Z" fill="#06CA02"/>
</svg>
