<svg width="47" height="46" viewBox="0 0 47 46" fill="none" xmlns="http://www.w3.org/2000/svg">
<g filter="url(#filter0_d_433_2086)">
<path d="M18.1219 27.5805H5.39695C4.99991 27.5805 4.61913 27.7341 4.33838 28.0076C4.05763 28.2812 3.8999 28.6521 3.8999 29.0389V41.4416C3.8999 42.2485 4.57173 42.9 5.39695 42.9H18.128C18.9563 42.9 19.6251 42.2455 19.6251 41.4416V29.0389C19.6251 28.6521 19.4673 28.2812 19.1866 28.0076C18.9058 27.7341 18.5251 27.5805 18.128 27.5805H18.1219ZM41.4029 27.5805H28.6718C28.2747 27.5805 27.894 27.7341 27.6132 28.0076C27.3325 28.2812 27.1747 28.6521 27.1747 29.0389V41.4416C27.1747 42.2485 27.8435 42.9 28.6718 42.9H41.4029C42.2311 42.9 42.8999 42.2455 42.8999 41.4416V29.0389C42.8999 28.6521 42.7422 28.2812 42.4614 28.0076C42.1807 27.7341 41.7999 27.5805 41.4029 27.5805ZM18.1249 4.90152C18.1229 4.9025 18.1207 4.90301 18.1185 4.90301H5.39695C4.99991 4.90301 4.61913 5.05667 4.33838 5.33018C4.05763 5.60369 3.8999 5.97465 3.8999 6.36145V18.7641C3.8999 19.571 4.57173 20.2226 5.39695 20.2226H18.128C18.9563 20.2226 19.6251 19.5681 19.6251 18.7641V6.35846C19.6251 5.97166 19.4673 5.6007 19.1866 5.32719C18.9066 5.05446 18.5272 4.90091 18.1314 4.90003C18.1292 4.90002 18.127 4.90054 18.1249 4.90152ZM26.914 13.6925C25.9906 13.5371 25.9906 12.249 26.914 12.0906C28.5468 11.8139 30.0581 11.0698 31.2552 9.95314C32.4523 8.83645 33.2809 7.39777 33.6354 5.82051L33.6906 5.57246C33.89 4.68485 35.1876 4.67588 35.3962 5.56349L35.4637 5.85339C35.8316 7.42389 36.6675 8.8535 37.8666 9.96267C39.0658 11.0718 40.5746 11.8111 42.2035 12.0876C43.13 12.243 43.13 13.5401 42.2035 13.6985C40.5746 13.975 39.0658 14.7142 37.8666 15.8234C36.6675 16.9325 35.8316 18.3622 35.4637 19.9327L35.3962 20.2196C35.1876 21.1072 33.8931 21.1012 33.6906 20.2136L33.6354 19.9655C33.2814 18.3877 32.4531 16.9484 31.2559 15.8311C30.0588 14.7139 28.5472 13.9693 26.914 13.6925Z" stroke="url(#paint0_linear_433_2086)" stroke-width="3" stroke-linecap="round" stroke-linejoin="round" shape-rendering="crispEdges"/>
</g>
<defs>
<filter id="filter0_d_433_2086" x="-9.77516e-05" y="2.43187e-05" width="46.8" height="45.8" filterUnits="userSpaceOnUse" color-interpolation-filters="sRGB">
<feFlood flood-opacity="0" result="BackgroundImageFix"/>
<feColorMatrix in="SourceAlpha" type="matrix" values="0 0 0 0 0 0 0 0 0 0 0 0 0 0 0 0 0 0 127 0" result="hardAlpha"/>
<feOffset dy="-1"/>
<feGaussianBlur stdDeviation="1.2"/>
<feComposite in2="hardAlpha" operator="out"/>
<feColorMatrix type="matrix" values="0 0 0 0 0 0 0 0 0 0 0 0 0 0 0 0 0 0 0.39 0"/>
<feBlend mode="normal" in2="BackgroundImageFix" result="effect1_dropShadow_433_2086"/>
<feBlend mode="normal" in="SourceGraphic" in2="effect1_dropShadow_433_2086" result="shape"/>
</filter>
<linearGradient id="paint0_linear_433_2086" x1="-4.1001" y1="34.4" x2="65.3999" y2="-2.59998" gradientUnits="userSpaceOnUse">
<stop stop-color="#42A5F5"/>
<stop offset="0.757594" stop-color="#EB00D4"/>
</linearGradient>
</defs>
</svg>
