<svg width="12" height="12" viewBox="0 0 12 12" fill="none" xmlns="http://www.w3.org/2000/svg">
<path d="M11.9663 1.38977C11.9495 1.03595 11.8013 0.701111 11.5507 0.450643C11.3002 0.200176 10.9652 0.0520764 10.6112 0.0352735C10.1172 0.0141095 9.64433 0 9.18558 0C5.63562 0 3.17252 0.684303 1.80335 2.05291C-0.793843 4.64903 -0.419792 8.33157 1.86687 10.448H1.87392C2.83177 7.77101 4.76494 5.55394 7.28709 4.23986C7.13888 4.36684 3.97003 6.76543 3.39836 11.4709C4.13941 11.8095 4.95103 12 5.76971 12C7.21652 12 8.70567 11.4356 9.9478 10.2011C11.4934 8.64903 12.1639 5.71429 11.9663 1.38977Z" fill="#41E233"/>
</svg>
