<svg width="187" height="155" viewBox="0 0 187 155" fill="none" xmlns="http://www.w3.org/2000/svg">
<path opacity="0.78" d="M76.7694 26.525L70.1372 12.085C66.4895 4.14301 57.3286 0.481791 49.7796 3.94898L8.60315 22.8609C1.05415 26.3281 -2.13784 35.6629 1.50985 43.6049L47.935 144.685C51.5827 152.627 60.7437 156.288 68.2927 152.821L178.096 102.389C185.645 98.922 188.837 89.5872 185.19 81.6452L152.029 9.44513C148.381 1.50312 139.22 -2.1581 131.671 1.30909L76.7694 26.525ZM75.386 132.077L61.6605 138.381L55.0283 123.941L68.7538 117.637L75.386 132.077ZM62.1216 103.197L48.3962 109.501L41.764 95.061L55.4895 88.757L62.1216 103.197ZM48.8573 74.317L35.1318 80.621L28.4997 66.181L42.2251 59.877L48.8573 74.317ZM35.593 45.437L21.8675 51.741L15.2353 37.3009L28.9608 30.997L35.593 45.437ZM102.837 119.469L89.1114 125.773L82.4793 111.333L96.2047 105.029L102.837 119.469ZM89.5726 90.5891L75.8471 96.8931L69.2149 82.453L82.9404 76.1491L89.5726 90.5891ZM76.3082 61.709L62.5828 68.013L55.9506 53.573L69.6761 47.269L76.3082 61.709ZM63.0439 32.829L49.3184 39.133L42.6863 24.693L56.4117 18.389L63.0439 32.829ZM164.602 91.1012L116.562 113.165L109.93 98.7251L123.656 92.4211L117.024 77.9811L103.298 84.2851L96.6659 69.8451L110.391 63.5411L103.759 49.1011L90.0337 55.4051L83.4015 40.965L131.441 18.9011C135.215 17.1675 139.796 18.9981 141.619 22.9691L168.148 80.7292C169.972 84.7002 168.376 89.3676 164.602 91.1012ZM131.21 36.4931L117.485 42.7971L124.117 57.2371L137.842 50.9331L131.21 36.4931ZM144.474 65.3731L130.749 71.6771L137.381 86.1171L151.107 79.8132L144.474 65.3731Z" fill="#2B365A"/>
</svg>
