<svg width="186" height="169" viewBox="0 0 186 169" fill="none" xmlns="http://www.w3.org/2000/svg">
<path opacity="0.51" d="M60.9154 94.982L118.346 62.9451M43.0157 17.7179L9.42449 69.992C7.36671 73.1933 6.19277 76.8157 6.02174 80.4919C5.8507 84.168 6.68864 87.7672 8.45058 90.9243L42.604 152.149C45.2529 156.898 49.8103 160.327 55.2734 161.682C60.7366 163.037 66.6582 162.207 71.7353 159.375L167.453 105.98C172.53 103.148 176.347 98.5452 178.064 93.1847C179.781 87.8243 179.258 82.1451 176.609 77.3965L142.45 16.1627C140.689 13.0074 138.067 10.4059 134.85 8.62185C131.633 6.83781 127.936 5.93458 124.133 6.00369L62.0061 7.12434C58.2523 7.19255 54.5262 8.20562 51.1957 10.0635C47.8653 11.9213 45.0458 14.5596 43.0157 17.7179V17.7179ZM74.6489 52.1067L104.612 105.82L74.6489 52.1067Z" stroke="url(#paint0_linear_417_2060)" stroke-width="12" stroke-linecap="round" stroke-linejoin="round"/>
<defs>
<linearGradient id="paint0_linear_417_2060" x1="51.1957" y1="10.0635" x2="119.594" y2="132.677" gradientUnits="userSpaceOnUse">
<stop stop-color="#6C63FF"/>
<stop offset="1" stop-color="#FF3D00"/>
</linearGradient>
</defs>
</svg>
